<?xml version="1.0" standalone="no"?>
<!DOCTYPE svg PUBLIC "-//W3C//DTD SVG 20010904//EN"
 "http://www.w3.org/TR/2001/REC-SVG-20010904/DTD/svg10.dtd">
<svg version="1.0" xmlns="http://www.w3.org/2000/svg"
 width="7901.000000pt" height="2068.000000pt" viewBox="0 0 7901.000000 2068.000000"
 preserveAspectRatio="xMidYMid meet">

<g transform="translate(0.000000,2068.000000) scale(0.100000,-0.100000)"
fill="#000000" stroke="none">
<path d="M10565 18215 c-310 -41 -633 -154 -935 -328 -187 -108 -876 -506
-1385 -802 -220 -128 -656 -380 -970 -560 -693 -399 -1047 -604 -1435 -830
-162 -95 -419 -241 -570 -325 -560 -311 -782 -472 -1005 -732 -222 -258 -394
-569 -478 -863 -56 -195 -68 -296 -77 -655 -13 -504 -12 -5679 1 -5798 43
-391 176 -750 404 -1092 205 -307 452 -515 955 -807 96 -56 632 -364 1190
-685 1111 -640 2205 -1272 2820 -1631 661 -386 804 -460 1052 -546 250 -86
463 -117 743 -108 445 15 792 121 1215 373 80 47 370 216 645 374 275 158 696
401 935 540 239 139 773 448 1185 685 413 238 863 499 1000 580 138 81 331
192 430 247 426 238 566 323 730 443 122 89 279 236 383 358 84 100 125 156
218 302 101 159 220 438 261 610 47 203 62 322 73 590 5 138 15 376 21 530 7
182 8 512 3 945 -4 366 -8 1437 -9 2380 -1 1152 -5 1758 -13 1847 -12 146 -27
235 -76 443 -18 76 -70 232 -102 305 -7 17 -25 57 -39 90 -28 64 -67 142 -97
190 -10 17 -23 41 -30 55 -7 14 -37 61 -67 105 -183 271 -422 483 -826 732
-44 28 -314 184 -600 348 -534 306 -927 533 -1730 1000 -562 326 -1102 637
-1415 815 -129 74 -356 206 -505 294 -409 242 -450 265 -590 332 -246 119
-476 196 -695 236 -152 27 -458 33 -615 13z m-26 -534 l28 -20 6 -768 c4 -422
9 -780 13 -794 6 -25 -3 -31 -258 -169 -607 -329 -1070 -592 -1808 -1025 -419
-246 -656 -383 -1070 -615 -372 -209 -544 -311 -938 -559 l-354 -221 -31 22
c-18 12 -66 51 -107 88 -41 36 -102 88 -135 115 -115 95 -708 615 -725 635 -3
3 -50 46 -105 95 -101 91 -124 114 -125 127 0 7 55 45 110 77 51 28 218 127
319 188 20 12 50 29 66 37 17 9 44 25 60 36 17 11 44 27 62 37 18 10 78 45
135 78 57 32 119 67 138 77 19 11 53 30 75 43 22 13 47 27 55 31 14 7 279 155
310 174 12 7 282 165 434 255 63 37 237 140 274 162 20 12 46 27 57 33 11 6
37 21 57 33 20 12 81 48 135 80 54 32 105 62 113 67 8 5 80 46 160 90 80 44
152 85 160 91 8 5 29 16 45 25 17 8 48 25 70 38 22 12 65 36 95 52 30 17 66
37 80 46 14 9 48 29 76 45 70 38 388 224 422 246 15 9 41 24 57 32 17 9 62 36
100 60 39 24 84 51 100 60 17 8 42 23 57 32 14 10 72 45 128 78 57 33 119 70
139 82 20 12 47 28 61 34 14 7 32 18 40 25 8 6 39 25 68 40 29 16 69 39 90 51
20 13 51 30 67 39 17 8 48 26 70 39 22 13 65 37 95 54 30 16 80 43 110 59 195
107 539 278 685 342 28 12 59 26 70 32 54 30 111 26 164 -11z m686 8 c94 -29
174 -58 208 -75 16 -8 33 -14 38 -14 20 0 265 -119 374 -181 39 -22 84 -47
100 -55 17 -8 47 -25 67 -37 20 -12 79 -46 130 -76 51 -30 100 -60 108 -66 8
-7 170 -101 360 -209 190 -108 352 -201 360 -206 17 -10 530 -309 558 -325 9
-5 33 -20 52 -32 36 -22 1170 -675 1250 -720 25 -14 61 -35 80 -47 19 -12 44
-27 55 -33 305 -178 479 -280 515 -302 25 -15 70 -41 100 -58 68 -37 124 -69
265 -148 61 -34 130 -73 155 -87 60 -33 119 -67 152 -87 15 -9 69 -41 120 -70
115 -68 372 -239 415 -278 l31 -28 -151 -142 c-313 -291 -609 -551 -910 -796
l-168 -137 -57 40 c-31 23 -88 63 -127 91 -281 203 -639 422 -1215 742 -239
132 -663 378 -1075 621 -416 247 -1046 607 -1355 774 -41 22 -124 68 -185 101
-60 33 -174 95 -252 138 -84 45 -145 85 -150 98 -10 22 -7 1526 2 1556 6 18
60 69 73 69 4 0 39 -9 77 -21z m-182 -2240 c125 -29 219 -67 442 -179 212
-107 431 -231 795 -450 217 -130 555 -326 925 -534 66 -37 134 -76 150 -85
142 -86 898 -523 1233 -714 188 -107 272 -161 384 -249 257 -202 400 -453 437
-768 14 -121 17 -4087 3 -4240 -24 -261 -110 -450 -291 -642 -173 -184 -364
-316 -816 -563 -99 -54 -272 -152 -385 -218 -113 -66 -493 -286 -845 -489
-352 -203 -703 -407 -780 -452 -390 -231 -890 -514 -965 -547 -102 -44 -194
-71 -316 -93 -100 -18 -297 -21 -359 -6 -22 5 -69 14 -104 20 -87 15 -190 50
-311 108 -36 17 -240 134 -288 164 -15 10 -43 27 -62 38 -19 11 -48 29 -65 40
-16 11 -43 27 -60 36 -16 8 -48 26 -70 39 -22 14 -49 29 -60 34 -11 5 -63 33
-116 63 -52 30 -102 58 -110 62 -8 4 -31 17 -51 29 -20 12 -82 49 -138 82 -57
33 -119 70 -139 82 -20 12 -49 29 -66 37 -16 9 -43 25 -60 36 -16 11 -43 27
-60 36 -16 8 -47 25 -67 37 -20 12 -78 46 -130 75 -51 29 -100 57 -108 62 -8
6 -26 15 -40 21 -14 6 -32 16 -40 24 -8 7 -39 26 -68 41 -29 16 -68 38 -87 49
-229 134 -302 177 -315 185 -8 5 -84 49 -169 97 -85 48 -170 98 -190 110 -20
12 -49 29 -66 38 -16 8 -42 23 -57 32 -37 24 -409 238 -428 246 -8 4 -22 11
-30 16 -8 6 -53 31 -100 57 -498 276 -731 581 -769 1005 -7 76 -11 794 -12
2100 0 1945 4 2227 32 2280 4 9 13 38 19 65 11 50 18 68 64 164 114 235 272
397 544 555 56 33 119 70 140 82 20 12 51 30 69 40 27 15 928 537 973 563 8 5
60 35 115 67 55 32 109 63 120 70 11 7 34 19 50 28 17 9 44 24 60 34 51 32
869 503 890 513 11 5 38 20 60 33 46 27 85 50 135 77 19 10 47 26 62 36 14 9
71 43 125 75 54 32 130 78 168 102 39 24 84 51 100 60 17 8 48 26 70 39 46 27
258 134 325 164 70 31 139 52 220 69 41 8 91 18 110 23 75 17 277 11 373 -11z
m-6282 -1381 c118 -105 264 -237 324 -292 61 -56 168 -151 240 -211 71 -61
201 -173 288 -250 87 -77 172 -151 188 -165 l29 -25 -35 -216 c-69 -431 -64
-255 -67 -2564 -3 -2381 -12 -2127 84 -2535 l51 -215 -89 -84 c-133 -125 -331
-300 -499 -441 -82 -69 -197 -170 -255 -224 -234 -221 -471 -425 -486 -419 -8
3 -56 89 -105 192 -124 254 -137 287 -165 391 -47 173 -64 291 -74 492 -13
302 3 5656 18 5693 7 17 19 66 27 110 8 44 20 100 26 125 46 180 118 428 145
500 14 41 39 116 59 180 35 115 53 149 76 150 4 0 103 -86 220 -192z m12409
17 c154 -229 221 -412 271 -740 17 -108 26 -5671 9 -5875 -23 -294 -79 -520
-176 -713 -52 -104 -167 -287 -179 -287 -20 0 -312 254 -590 514 -22 20 -73
65 -114 99 -41 34 -129 109 -195 167 -67 58 -139 120 -161 139 -22 19 -84 75
-138 125 -95 87 -98 92 -93 126 9 65 37 189 82 375 35 145 37 256 41 2245 3
1727 2 1988 -12 2155 -9 105 -22 213 -29 240 -8 28 -17 69 -20 92 -3 24 -12
57 -20 75 -29 71 -58 170 -59 202 -1 28 8 42 64 93 82 77 321 289 424 377 44
38 104 90 133 115 30 25 66 57 81 71 141 129 336 303 376 337 150 125 211 173
222 173 7 0 44 -47 83 -105z m-10699 -7113 c491 -305 954 -576 1763 -1031 197
-111 548 -316 780 -455 684 -412 979 -568 1360 -721 l196 -79 0 -868 0 -868
-37 5 c-44 6 -72 14 -168 50 -38 14 -88 31 -110 37 -22 6 -49 17 -60 25 -11 7
-25 13 -33 13 -22 0 -310 138 -407 195 -22 13 -53 31 -70 39 -16 9 -47 26 -67
39 -20 12 -76 46 -125 75 -48 30 -119 73 -158 97 -38 24 -83 51 -100 59 -16 9
-45 25 -62 36 -70 43 -100 60 -148 85 -47 25 -658 377 -729 420 -18 11 -303
175 -632 364 -329 190 -617 356 -639 370 -44 27 -83 50 -130 75 -16 9 -48 27
-70 41 -22 14 -49 30 -60 36 -11 5 -37 20 -57 32 -20 12 -78 46 -130 75 -51
29 -100 57 -108 62 -19 12 -159 92 -180 103 -8 4 -33 19 -55 32 -22 14 -53 32
-70 41 -16 8 -47 25 -67 37 -60 36 -242 140 -258 148 -79 38 -368 182 -380
189 -8 5 -73 42 -143 82 -71 40 -139 80 -152 88 -13 8 -45 28 -72 44 -100 60
-153 98 -164 117 -9 17 -5 25 24 52 180 168 259 240 295 270 40 34 154 135
226 200 17 16 72 63 121 105 50 42 92 79 95 82 8 10 362 323 410 362 25 21 50
36 56 34 7 -3 149 -90 315 -194z m9207 81 c75 -65 186 -163 247 -218 60 -56
207 -184 325 -285 271 -232 474 -428 460 -445 -36 -43 -345 -236 -740 -462
-168 -96 -312 -178 -320 -183 -8 -5 -34 -19 -57 -30 -23 -12 -57 -32 -75 -44
-18 -12 -40 -25 -48 -29 -8 -3 -36 -19 -61 -34 -65 -40 -434 -255 -467 -273
-27 -15 -129 -74 -200 -117 -21 -12 -50 -29 -67 -37 -16 -9 -47 -26 -67 -39
-21 -12 -66 -37 -100 -56 -35 -18 -70 -38 -78 -45 -8 -6 -24 -16 -35 -22 -23
-12 -209 -119 -263 -151 -20 -11 -48 -28 -62 -36 -14 -8 -38 -22 -55 -32 -16
-9 -47 -27 -67 -38 -20 -12 -188 -110 -373 -217 -185 -107 -353 -205 -373
-217 -20 -12 -50 -29 -67 -37 -16 -9 -48 -27 -70 -41 -22 -14 -49 -30 -60 -36
-11 -5 -37 -20 -57 -32 -20 -12 -204 -119 -408 -237 -204 -118 -388 -225 -408
-237 -20 -11 -48 -27 -62 -35 -14 -8 -86 -48 -160 -90 -201 -114 -217 -122
-318 -172 -51 -25 -98 -46 -105 -46 -7 0 -21 -6 -32 -14 -22 -15 -104 -39
-205 -61 -36 -8 -83 -19 -106 -26 -81 -24 -74 -101 -74 839 0 655 3 842 13
855 6 9 55 32 107 52 342 129 454 181 690 320 63 38 284 166 490 285 206 119
515 297 685 397 281 163 1586 917 1880 1085 66 38 147 86 180 107 159 100 410
251 418 251 5 0 71 -53 145 -117z"/>
<path d="M10676 14000 c-219 -35 -426 -129 -801 -365 -273 -172 -383 -235
-532 -305 -138 -66 -199 -117 -239 -203 -54 -116 -12 -244 104 -318 35 -22 58
-29 96 -29 51 1 130 23 176 51 40 23 50 29 360 209 162 94 302 175 310 180 76
46 371 210 376 210 4 0 15 6 23 13 9 8 56 23 104 35 171 43 348 22 507 -57 41
-21 217 -120 390 -221 173 -101 380 -222 460 -268 222 -129 272 -152 328 -152
89 0 173 55 230 151 32 53 30 134 -4 201 -45 88 -97 134 -224 196 -119 58
-312 166 -412 230 -408 261 -599 360 -810 418 -74 20 -122 26 -238 29 -80 2
-171 0 -204 -5z"/>
<path d="M7873 12150 c-104 -22 -203 -93 -243 -174 -51 -107 -66 -307 -75
-1001 -4 -355 -2 -546 9 -735 10 -185 13 -424 11 -873 -4 -652 0 -719 42 -832
20 -54 48 -76 125 -96 39 -11 60 -11 110 0 96 19 157 77 190 176 6 19 11 535
14 1402 4 1178 7 1377 19 1407 28 67 88 55 166 -33 24 -27 172 -156 329 -287
157 -131 402 -337 545 -459 143 -121 393 -333 555 -470 162 -137 387 -328 500
-425 505 -433 515 -440 643 -440 154 1 309 90 563 326 56 52 133 120 171 152
60 51 114 98 157 137 6 6 61 51 121 100 61 49 115 95 120 101 6 6 48 42 95 80
47 38 90 73 96 79 6 5 64 55 129 110 66 55 137 116 160 135 22 20 65 56 95 80
67 54 361 309 375 324 6 7 90 76 189 155 98 79 229 193 291 252 143 138 181
155 212 97 16 -31 18 -122 20 -1393 3 -951 7 -1375 15 -1410 23 -107 71 -163
160 -190 64 -19 92 -19 151 -1 107 32 144 92 170 276 14 101 16 290 17 1510 1
1503 1 1505 -52 1675 -20 66 -64 135 -113 177 -48 42 -128 70 -210 76 -157 9
-235 -33 -520 -283 -99 -87 -382 -327 -630 -534 -247 -206 -540 -455 -650
-551 -110 -97 -328 -283 -485 -414 -157 -132 -330 -283 -386 -336 -125 -121
-166 -144 -246 -137 -84 7 -153 54 -318 213 -47 46 -116 108 -155 139 -38 31
-83 69 -100 83 -16 15 -68 58 -115 96 -47 38 -87 72 -90 75 -3 4 -50 44 -105
91 -55 46 -139 118 -186 160 -143 126 -239 209 -429 370 -47 39 -98 84 -115
99 -16 15 -66 55 -110 90 -44 36 -84 69 -90 75 -5 6 -59 52 -120 101 -60 49
-114 94 -120 101 -5 6 -46 39 -90 75 -87 69 -264 222 -360 310 -91 84 -145
124 -200 146 -58 25 -189 36 -252 23z"/>
<path d="M9234 7946 c-52 -23 -110 -83 -134 -138 -18 -42 -21 -64 -17 -110 11
-123 91 -206 288 -300 149 -72 219 -112 494 -285 105 -66 236 -145 293 -176
273 -151 514 -218 740 -204 278 17 503 112 952 402 196 126 320 197 465 265
94 45 138 72 175 109 67 67 100 135 100 208 0 51 -5 66 -37 115 -51 75 -90
105 -153 119 -100 21 -117 15 -485 -198 -928 -536 -861 -505 -1095 -504 -114
0 -148 4 -201 22 -53 18 -149 66 -219 109 -8 6 -28 17 -45 25 -16 8 -48 26
-70 40 -22 13 -49 29 -60 34 -11 6 -38 22 -60 35 -22 14 -59 34 -82 46 -23 12
-59 33 -80 47 -20 14 -46 29 -57 34 -12 5 -39 20 -61 34 -22 13 -53 31 -70 39
-16 9 -43 24 -60 35 -16 10 -96 57 -176 104 -180 104 -266 127 -345 93z"/>
<path d="M63371 16179 c-512 -58 -894 -299 -1084 -684 -100 -202 -142 -413
-134 -680 6 -226 46 -464 93 -553 8 -15 14 -33 14 -40 0 -8 6 -26 14 -40 8
-15 26 -52 41 -82 98 -198 307 -424 505 -544 25 -15 68 -41 95 -58 58 -36 175
-95 260 -133 33 -15 74 -33 92 -41 17 -8 35 -14 40 -14 4 -1 26 -9 48 -20 22
-11 44 -19 50 -20 9 0 33 -9 170 -62 226 -88 352 -204 432 -398 14 -34 18 -69
18 -150 -1 -92 -4 -112 -27 -160 -87 -184 -296 -291 -570 -290 -233 1 -421 79
-566 235 -109 117 -172 258 -194 433 -13 104 -1 305 27 466 9 48 14 91 11 94
-5 5 -107 -15 -474 -91 -63 -13 -117 -30 -122 -37 -4 -7 -11 -72 -15 -144 -8
-148 7 -344 30 -400 8 -19 15 -45 15 -56 0 -19 20 -76 55 -155 118 -269 298
-461 541 -580 62 -30 118 -55 125 -55 6 0 25 -6 42 -14 41 -19 132 -44 222
-61 39 -7 97 -19 130 -26 42 -9 145 -13 340 -13 263 0 288 2 405 26 158 33
324 88 418 139 252 135 472 404 580 710 64 183 77 269 77 529 0 264 -12 348
-71 530 -59 183 -151 341 -276 475 -138 147 -293 254 -588 404 -199 101 -302
147 -515 226 -185 69 -390 168 -472 228 -122 90 -177 191 -177 322 1 128 82
252 208 317 120 63 158 70 356 71 166 0 191 -2 245 -21 32 -12 65 -22 73 -22
17 0 162 -72 204 -102 76 -53 183 -174 216 -243 19 -39 38 -77 42 -87 5 -9 16
-58 26 -110 16 -93 15 -141 -5 -293 -12 -90 -6 -99 68 -91 31 4 88 13 126 21
39 8 104 18 145 24 41 5 102 15 135 21 33 7 71 14 84 17 l24 4 -6 192 c-7 265
-34 362 -152 543 -173 265 -496 459 -875 525 -134 24 -392 33 -519 18z"/>
<path d="M21322 14003 l3 -2118 214 -3 c165 -2 216 1 223 10 4 7 8 569 8 1248
0 679 3 1260 7 1290 6 51 7 53 15 25 4 -16 47 -181 94 -365 47 -184 103 -402
124 -485 21 -82 75 -294 120 -470 45 -176 103 -405 130 -510 27 -104 79 -309
116 -455 37 -146 71 -271 77 -278 7 -9 85 -12 350 -10 l341 3 14 50 c15 54 44
180 67 288 8 38 17 73 20 78 3 5 12 41 20 81 8 40 19 93 25 118 21 83 48 194
70 295 12 55 28 120 35 145 8 25 16 63 20 85 5 36 19 95 55 235 6 25 17 77 25
117 8 40 18 80 23 90 5 10 13 43 17 73 4 30 11 63 16 72 5 10 16 50 24 90 18
95 33 161 51 226 9 29 19 74 24 100 8 51 31 145 61 257 11 39 19 81 19 93 0
13 6 38 14 55 8 18 19 46 24 62 7 21 11 -387 11 -1292 l1 -1323 648 0 c491 0
651 3 660 12 9 9 12 492 12 2114 0 1907 -1 2102 -16 2108 -9 3 -326 6 -704 6
l-689 0 -10 -37 c-5 -21 -39 -166 -75 -323 -36 -157 -101 -440 -145 -630 -44
-190 -119 -514 -166 -720 -47 -206 -88 -382 -91 -390 -6 -18 -39 75 -59 168
-8 37 -23 105 -34 152 -11 47 -25 108 -31 135 -6 28 -18 75 -26 105 -8 30 -19
75 -23 100 -12 62 -39 175 -56 235 -8 28 -17 68 -20 90 -3 22 -12 58 -19 80
-8 22 -18 63 -24 90 -9 49 -36 163 -74 320 -33 140 -58 248 -73 318 -8 38 -17
72 -20 77 -3 4 -11 42 -19 82 -8 41 -21 91 -30 111 l-15 37 -681 0 -680 0 2
-2117z"/>
<path d="M25710 14000 l0 -2120 1448 2 1447 3 3 246 2 247 -22 6 c-13 3 -362
6 -775 6 l-753 0 0 769 0 769 23 6 c12 3 257 6 543 6 l522 0 6 23 c8 29 8 431
0 451 -6 14 -63 16 -550 16 l-544 0 0 584 0 585 21 6 c12 4 299 8 638 8 511 2
621 4 635 16 15 12 16 39 14 250 l-3 236 -1327 3 -1328 2 0 -2120z"/>
<path d="M28902 14003 l3 -2118 671 -3 c555 -2 673 0 683 11 8 10 12 293 13
1018 l3 1004 67 3 c79 3 183 -24 239 -62 75 -51 127 -165 148 -322 6 -44 12
-329 15 -634 4 -445 8 -576 21 -660 24 -156 75 -336 99 -352 17 -12 1414 -10
1421 1 3 6 -12 43 -33 83 -73 141 -114 300 -127 498 -3 52 -12 147 -20 210 -7
63 -16 160 -20 215 -3 55 -10 127 -15 160 -5 33 -14 101 -20 151 -5 52 -25
137 -46 200 -78 235 -196 376 -444 531 -58 36 -107 67 -109 69 -9 8 35 34 67
40 18 3 34 10 37 14 3 5 22 14 43 21 154 50 368 272 466 484 70 151 92 224
106 352 40 376 -146 761 -473 977 -149 99 -304 157 -532 199 -105 19 -157 20
-1188 24 l-1077 4 2 -2118z m1647 1637 c115 -36 179 -88 239 -192 63 -111 94
-352 75 -586 -18 -205 -63 -332 -149 -419 -80 -80 -183 -113 -350 -113 l-94 0
0 658 c0 362 3 662 7 665 3 4 52 7 108 7 74 0 119 -5 164 -20z"/>
<path d="M32720 14000 l0 -2120 663 0 c364 0 668 4 675 8 10 7 12 437 10 2118
l-3 2109 -672 3 -673 2 0 -2120z"/>
<path d="M34682 14003 l3 -2118 1000 0 c932 0 1007 1 1105 19 267 47 486 128
656 242 293 196 532 576 663 1054 71 260 96 470 96 800 -1 287 -12 418 -56
635 -164 816 -622 1325 -1313 1457 -108 21 -140 22 -1134 25 l-1022 4 2 -2118z
m1666 1667 c199 -33 332 -217 377 -520 64 -428 63 -1812 -1 -2284 -33 -251
-120 -425 -247 -499 -76 -45 -139 -57 -294 -57 l-143 0 0 1679 c0 1334 3 1680
13 1684 22 10 231 7 295 -3z"/>
<path d="M38645 16108 c-3 -7 -4 -960 -3 -2118 l3 -2105 670 0 670 0 0 2115 0
2115 -668 3 c-529 2 -669 0 -672 -10z"/>
<path d="M41341 16083 c-5 -21 -26 -101 -46 -178 -20 -77 -48 -183 -61 -235
-33 -124 -96 -364 -150 -570 -23 -91 -54 -209 -68 -262 -119 -450 -185 -705
-227 -866 -29 -115 -94 -360 -128 -487 -10 -38 -45 -169 -76 -290 -58 -222
-109 -418 -250 -952 -42 -161 -78 -307 -78 -325 l-2 -33 247 -3 c286 -3 255
-16 289 120 11 46 29 115 39 153 10 39 34 131 53 205 20 74 47 179 61 233 14
53 26 99 26 101 0 3 7 12 16 20 14 14 74 16 517 16 276 0 512 -3 524 -6 22 -6
17 11 104 -364 11 -47 27 -116 36 -155 8 -38 24 -101 33 -140 10 -38 21 -92
25 -118 5 -31 14 -51 26 -57 25 -14 1326 -13 1334 0 4 6 0 39 -9 73 -15 60
-79 325 -188 772 -28 116 -83 345 -123 510 -41 165 -88 359 -105 430 -17 72
-53 220 -80 330 -27 110 -65 265 -84 345 -19 80 -65 267 -101 415 -36 149 -90
371 -120 495 -31 124 -90 367 -133 540 l-77 315 -607 3 -607 2 -10 -37z m230
-1310 c33 -150 57 -255 79 -348 12 -49 28 -117 35 -150 7 -33 18 -82 25 -110
6 -27 21 -87 31 -132 10 -46 28 -120 39 -165 10 -46 29 -126 40 -178 21 -93
28 -126 69 -300 11 -47 23 -100 26 -117 l7 -33 -401 0 c-375 0 -401 1 -401 18
0 9 28 125 61 257 34 132 67 265 74 295 27 113 244 967 260 1024 21 72 27 65
56 -61z"/>
<path d="M43837 16113 c-4 -3 -7 -955 -7 -2114 l0 -2109 23 -5 c12 -3 112 -4
222 -3 l200 3 3 1118 c1 614 6 1117 10 1117 15 0 31 -22 327 -460 61 -91 156
-230 210 -310 99 -146 198 -292 466 -690 155 -229 303 -447 440 -650 l85 -125
500 -3 c274 -1 509 0 522 3 l22 5 -2 2113 -3 2112 -217 3 -218 2 0 -1258 c0
-693 -3 -1287 -6 -1320 l-7 -61 -26 37 c-15 20 -175 258 -356 527 -180 270
-397 591 -480 715 -264 391 -828 1232 -870 1297 l-40 62 -396 0 c-218 1 -399
-2 -402 -6z"/>
<path d="M49162 14003 l3 -2118 667 -3 668 -2 5 22 c3 13 4 966 3 2118 l-3
2095 -673 3 -672 2 2 -2117z"/>
<path d="M51095 16108 c-3 -7 -4 -960 -3 -2118 l3 -2105 220 0 220 0 3 1110
c1 610 6 1113 11 1118 11 11 33 -18 230 -308 63 -93 147 -217 185 -274 39 -56
78 -114 86 -127 16 -25 152 -223 200 -292 16 -23 30 -46 30 -49 0 -4 9 -16 19
-27 17 -19 84 -118 415 -611 45 -66 84 -124 89 -130 4 -5 19 -28 34 -50 135
-202 218 -324 236 -343 l21 -22 510 2 511 3 3 2118 2 2117 -222 -2 -223 -3 -5
-1315 -5 -1315 -66 95 c-36 52 -236 349 -444 660 -209 311 -505 752 -658 980
-153 228 -351 524 -440 657 l-162 242 -398 1 c-309 0 -399 -3 -402 -12z"/>
<path d="M54717 16114 c-4 -4 -7 -953 -7 -2109 0 -1791 2 -2104 14 -2114 20
-16 2010 -10 2076 7 25 6 74 16 109 22 146 25 335 92 484 174 421 229 719 769
824 1491 25 170 24 646 0 830 -50 372 -140 659 -288 917 -211 368 -545 629
-933 729 -207 53 -169 52 -1256 56 -559 2 -1019 1 -1023 -3z m1669 -444 c154
-27 269 -141 334 -330 33 -97 59 -298 72 -561 25 -492 10 -1688 -22 -1835 -5
-23 -14 -79 -19 -126 -26 -226 -145 -418 -298 -479 -51 -21 -79 -24 -220 -27
l-163 -3 0 1680 c0 1591 1 1680 18 1684 34 9 240 7 298 -3z"/>
<path d="M58634 16106 c-3 -7 -3 -690 -2 -1517 4 -1344 6 -1513 20 -1589 9
-47 21 -114 27 -150 30 -184 105 -378 199 -515 123 -179 462 -388 732 -450 30
-7 66 -17 80 -23 14 -5 50 -13 80 -17 30 -3 93 -13 139 -21 130 -22 427 -19
581 6 544 89 952 352 1101 708 39 94 74 232 96 376 15 100 17 269 20 1659 l4
1547 -213 -2 -213 -3 -6 -1520 c-5 -1591 -8 -1665 -50 -1790 -40 -117 -70
-168 -143 -240 -125 -124 -254 -173 -472 -182 -103 -4 -149 -2 -210 12 -209
45 -328 159 -378 360 -39 153 -39 183 -43 1793 l-4 1572 -670 0 c-556 0 -671
-2 -675 -14z"/>
<path d="M65152 15863 l3 -258 455 -5 c250 -3 461 -9 468 -13 9 -7 12 -387 12
-1846 0 -1415 3 -1840 12 -1849 9 -9 182 -12 715 -12 l703 0 0 1854 0 1854 23
6 c12 3 226 6 475 6 l452 0 0 260 0 260 -1660 0 -1660 0 2 -257z"/>
<path d="M68732 14003 l3 -2118 670 0 670 0 3 1011 2 1012 31 6 c88 17 221 -6
291 -52 77 -50 120 -136 148 -292 16 -91 19 -183 24 -695 3 -350 9 -608 16
-635 5 -25 17 -79 25 -120 8 -41 21 -93 29 -115 8 -22 15 -47 16 -56 0 -9 9
-28 21 -43 l20 -26 705 0 c403 0 704 4 704 9 0 5 -20 46 -44 92 -86 162 -102
248 -156 839 -47 512 -78 640 -203 824 -74 109 -217 231 -389 330 -27 16 -48
31 -48 36 0 4 43 25 95 45 181 72 326 194 440 368 72 112 101 172 141 294 45
139 60 269 45 395 -30 255 -138 475 -318 649 -143 138 -283 221 -468 278 -253
77 -325 81 -1483 81 l-992 0 2 -2117z m1653 1636 c162 -51 238 -148 290 -365
26 -110 23 -438 -5 -559 -64 -274 -203 -384 -487 -385 l-103 0 0 659 c0 620 1
660 18 664 9 3 62 5 118 6 77 1 116 -4 169 -20z"/>
<path d="M72057 16113 c-4 -3 -3 -11 2 -17 5 -6 14 -27 19 -46 6 -19 23 -66
37 -105 15 -38 33 -88 40 -110 8 -22 26 -71 40 -110 15 -38 33 -88 40 -110 7
-22 26 -69 40 -105 15 -36 31 -78 35 -95 5 -16 21 -61 35 -100 15 -38 33 -88
40 -110 8 -22 26 -71 40 -110 15 -38 33 -90 41 -114 8 -24 18 -49 23 -55 5 -6
12 -27 16 -46 4 -19 11 -39 15 -45 4 -5 14 -30 21 -55 7 -25 16 -49 20 -55 4
-5 23 -55 42 -110 19 -55 41 -116 48 -135 7 -19 21 -59 31 -87 50 -139 61
-170 73 -193 7 -14 16 -41 20 -60 4 -19 11 -40 16 -46 5 -6 15 -31 23 -55 8
-24 26 -75 41 -114 14 -38 30 -83 34 -100 5 -16 15 -46 23 -65 9 -19 21 -51
28 -70 34 -97 41 -117 49 -135 41 -92 41 -92 41 -887 0 -581 3 -767 12 -776 9
-9 172 -12 670 -12 l658 0 0 775 0 775 371 1062 c204 585 405 1160 446 1278
41 118 85 245 98 283 l24 67 -260 -2 -260 -3 -20 -55 c-11 -30 -24 -68 -29
-85 -5 -16 -30 -88 -55 -160 -25 -71 -52 -150 -60 -175 -8 -25 -26 -76 -40
-115 -15 -38 -33 -90 -40 -115 -25 -83 -85 -255 -95 -272 -5 -10 -14 -34 -19
-55 -5 -21 -22 -69 -36 -108 -15 -38 -33 -90 -40 -115 -8 -25 -35 -103 -60
-175 -25 -71 -50 -146 -56 -165 -5 -19 -14 -44 -19 -55 -5 -11 -23 -62 -40
-113 -17 -51 -39 -102 -49 -113 -19 -20 -19 -20 -34 23 -14 40 -627 1769 -649
1831 l-10 27 -687 0 c-378 0 -691 -3 -694 -7z"/>
<path d="M31319 8720 c-164 -20 -352 -110 -500 -242 -98 -87 -210 -263 -257
-403 -59 -178 -57 -120 -57 -1385 l0 -1165 185 0 185 0 6 1155 c4 809 9 1165
16 1190 7 19 19 58 27 85 9 28 35 88 58 134 91 176 226 251 458 251 179 0 293
-42 386 -143 60 -65 122 -184 150 -287 27 -99 25 -282 -4 -384 -52 -182 -149
-320 -259 -369 -93 -41 -220 -57 -449 -57 -159 0 -204 -3 -213 -14 -8 -9 -11
-68 -9 -187 l3 -174 325 0 c287 0 332 2 384 18 316 98 556 402 612 777 17 110
14 313 -5 435 -43 278 -227 530 -492 673 -168 90 -330 117 -550 92z"/>
<path d="M63835 8724 c-211 -23 -354 -66 -550 -165 -153 -78 -263 -156 -384
-272 -68 -66 -198 -223 -225 -272 -9 -16 -25 -43 -34 -60 -72 -119 -111 -214
-168 -405 -21 -70 -43 -235 -51 -373 -5 -105 15 -351 39 -457 29 -135 40 -175
47 -185 5 -5 12 -26 16 -45 9 -42 79 -191 131 -280 119 -200 271 -368 436
-481 144 -98 369 -197 491 -214 l47 -7 0 195 0 195 -62 23 c-229 84 -421 251
-567 494 -83 136 -141 292 -173 463 -20 102 -16 378 5 482 88 415 364 771 698
900 229 88 570 96 774 18 227 -87 411 -231 539 -423 100 -151 154 -277 201
-475 22 -90 31 -345 17 -440 -27 -170 -58 -299 -92 -375 -78 -177 -150 -286
-260 -395 -126 -124 -189 -164 -397 -256 -17 -8 -45 -14 -62 -14 l-31 0 0 319
c0 282 -2 320 -16 325 -27 10 -324 7 -345 -4 -19 -10 -19 -30 -19 -840 l0
-830 190 0 190 0 2 322 3 321 69 14 c609 123 1123 761 1164 1444 32 526 -128
960 -483 1313 -202 201 -444 340 -715 412 -75 19 -126 25 -240 28 -80 2 -163
2 -185 0z"/>
<path d="M22988 8693 c-10 -2 -19 -5 -20 -6 -2 -1 -5 -299 -8 -662 l-5 -660
-630 0 -630 0 -5 655 c-3 360 -6 656 -8 658 -1 1 -85 2 -187 2 l-185 0 0
-1580 0 -1580 188 2 187 3 3 723 2 722 635 0 635 0 2 -722 3 -723 190 0 190 0
3 1569 c2 1450 1 1571 -15 1588 -14 16 -33 18 -172 17 -86 -1 -164 -3 -173 -6z"/>
<path d="M54979 8683 c-11 -13 -15 -136 -19 -667 l-5 -651 -625 -3 c-579 -2
-626 -1 -637 15 -10 13 -13 161 -13 660 l0 643 -174 0 c-134 0 -176 -3 -185
-14 -8 -10 -10 -429 -9 -1577 l3 -1564 183 -3 c100 -1 182 1 182 5 0 5 0 331
0 726 l1 717 639 0 640 0 0 -709 c0 -390 3 -716 6 -725 5 -14 32 -16 195 -16
l189 0 0 1584 c0 1435 -1 1584 -16 1590 -9 3 -89 6 -179 6 -139 0 -165 -2
-176 -17z"/>
<path d="M27303 8673 c-10 -4 -13 -329 -13 -1579 l0 -1574 173 2 172 3 6 690
c4 499 9 702 18 735 6 25 30 82 52 127 92 191 240 272 478 261 83 -4 108 -10
165 -36 112 -53 198 -162 237 -302 9 -33 14 -236 18 -760 l6 -715 177 -3 177
-2 3 27 c2 16 1 370 -2 788 -5 835 0 758 -67 934 -71 188 -263 358 -463 410
-25 7 -61 16 -80 21 -19 5 -89 10 -156 10 -191 0 -356 -53 -497 -159 -30 -23
-57 -41 -60 -41 -4 0 -7 259 -7 575 0 558 -1 575 -19 585 -20 10 -294 13 -318
3z"/>
<path d="M36700 8673 c-14 -2 -60 -15 -103 -28 -261 -79 -424 -277 -471 -573
-14 -87 -16 -254 -16 -1326 l0 -1226 180 0 180 0 0 895 0 895 290 0 c276 0
290 1 300 19 15 29 13 328 -2 338 -7 4 -141 10 -298 13 l-285 5 0 175 c0 175
0 175 31 240 40 86 83 134 147 164 75 35 151 46 319 46 l148 0 0 179 c0 177 0
179 -22 185 -26 6 -359 6 -398 -1z"/>
<path d="M59295 8668 c-3 -7 -4 -717 -3 -1578 l3 -1565 167 -3 167 -2 3 682
c4 757 1 724 73 876 64 135 174 224 314 253 31 6 100 9 157 7 86 -4 110 -9
167 -35 114 -54 182 -132 236 -273 l25 -65 5 -720 6 -720 178 -3 178 -2 -3
772 -3 773 -27 96 c-81 296 -272 473 -583 540 -83 17 -259 10 -358 -15 -51
-13 -102 -28 -113 -34 -10 -6 -39 -20 -64 -32 -25 -12 -75 -42 -111 -66 -37
-24 -69 -44 -73 -44 -3 0 -7 262 -8 583 l-3 582 -163 3 c-124 2 -164 0 -167
-10z"/>
<path d="M70270 8670 c-13 -8 -15 -196 -18 -1571 -2 -1250 0 -1564 10 -1571 7
-4 86 -8 176 -8 l162 0 0 1580 0 1580 -157 0 c-87 0 -165 -5 -173 -10z"/>
<path d="M24117 8396 c-92 -34 -147 -116 -147 -221 0 -75 24 -128 77 -176 103
-93 244 -75 315 38 20 33 23 51 23 134 0 88 -2 99 -28 137 -53 80 -157 119
-240 88z"/>
<path d="M56121 8399 c-19 -6 -58 -34 -87 -64 -47 -49 -53 -60 -59 -110 -15
-119 15 -198 94 -251 46 -30 132 -42 184 -25 46 15 112 88 126 137 43 155 -40
307 -174 319 -28 2 -65 0 -84 -6z"/>
<path d="M71436 8403 c-27 -7 -87 -46 -108 -69 -59 -67 -75 -187 -34 -264 72
-135 221 -171 321 -79 142 131 71 398 -110 414 -28 2 -59 1 -69 -2z"/>
<path d="M72322 8218 c-9 -9 -12 -250 -12 -1077 1 -595 5 -1084 10 -1106 27
-119 49 -184 81 -235 5 -8 18 -31 28 -51 26 -47 121 -134 180 -164 103 -51
145 -57 464 -62 l297 -5 0 186 0 186 -234 0 c-128 0 -257 4 -285 10 -69 13
-128 54 -166 114 l-30 49 -3 624 -3 623 361 0 360 0 0 185 0 185 -347 0 c-192
0 -354 4 -360 8 -9 6 -13 76 -15 272 l-3 265 -155 3 c-113 2 -159 -1 -168 -10z"/>
<path d="M46780 7714 c-175 -27 -341 -115 -472 -250 -84 -87 -97 -103 -142
-188 -55 -103 -81 -179 -100 -296 -15 -92 -17 -186 -14 -780 l3 -675 180 0
180 0 5 715 c6 794 2 753 75 875 94 157 242 245 410 245 213 -1 380 -137 471
-385 17 -46 19 -103 24 -750 l5 -700 178 -3 178 -2 -4 727 c-3 708 -4 730 -25
818 -44 178 -158 362 -294 472 -112 91 -281 162 -431 182 -95 13 -118 13 -227
-5z"/>
<path d="M25765 7711 c-33 -4 -82 -15 -108 -24 -26 -10 -52 -17 -58 -17 -16 0
-160 -71 -215 -106 -217 -139 -347 -303 -417 -526 -52 -164 -62 -238 -61 -448
0 -153 4 -201 22 -278 49 -211 142 -380 297 -537 188 -190 382 -279 635 -291
143 -7 260 14 417 78 l108 44 3 189 c1 104 -2 193 -7 198 -5 5 -47 -12 -105
-42 -53 -28 -102 -51 -109 -51 -7 0 -25 -7 -41 -15 -81 -43 -332 -45 -442 -3
-32 12 -70 30 -83 40 -13 10 -29 18 -35 18 -7 0 -47 35 -89 77 -76 76 -158
199 -173 259 -4 16 -12 40 -19 54 -7 14 -18 85 -25 158 -29 308 37 522 209
684 124 116 280 177 453 178 158 0 270 -43 382 -150 123 -117 212 -300 237
-487 6 -49 9 -311 7 -713 l-3 -635 -27 -71 c-36 -98 -99 -194 -169 -258 -67
-61 -200 -131 -274 -146 -27 -5 -68 -14 -90 -20 -58 -14 -209 -12 -285 4 -36
8 -90 17 -120 21 -30 4 -71 13 -90 20 -19 8 -53 16 -75 20 -21 4 -51 12 -65
19 -50 24 -55 16 -99 -159 -22 -91 -41 -167 -41 -169 0 -10 197 -68 310 -92
142 -31 380 -42 520 -25 250 31 412 111 571 286 103 114 172 228 212 351 82
256 87 310 87 998 0 637 -2 667 -59 883 -17 62 -76 182 -134 267 -90 135 -224
255 -359 322 -29 14 -64 32 -78 39 -14 7 -41 16 -60 20 -19 4 -55 13 -79 21
-51 17 -288 26 -376 15z"/>
<path d="M33445 7713 c-71 -6 -204 -47 -289 -88 -252 -124 -445 -330 -530
-569 -60 -169 -87 -419 -67 -609 48 -446 347 -818 756 -943 83 -26 103 -28
260 -28 153 1 180 3 270 28 380 104 667 412 755 811 11 49 20 104 20 122 0 29
-3 33 -37 38 -21 3 -72 12 -113 20 -41 7 -103 17 -137 20 -73 8 -65 18 -108
-140 -40 -152 -102 -271 -185 -358 -67 -70 -100 -92 -208 -136 -65 -27 -279
-40 -383 -23 -254 40 -455 278 -510 602 -17 100 -6 319 21 405 78 249 255 425
475 472 105 22 259 13 355 -20 76 -27 186 -95 230 -142 l25 -26 -25 -20 c-14
-10 -72 -47 -130 -81 -58 -34 -113 -67 -122 -73 -9 -5 -61 -36 -115 -68 -54
-32 -145 -87 -203 -123 -58 -35 -112 -67 -120 -71 -39 -20 -228 -135 -250
-153 l-25 -19 73 -146 c60 -120 76 -146 92 -143 33 5 1320 782 1320 797 0 11
-36 80 -95 180 -61 103 -217 271 -315 337 -57 40 -185 99 -230 109 -19 4 -54
13 -78 21 -44 14 -286 26 -377 17z"/>
<path d="M35665 7710 c-126 -20 -264 -106 -351 -219 -26 -35 -40 -47 -46 -38
-4 6 -8 55 -8 108 0 60 -4 99 -12 107 -17 17 -288 17 -311 0 -16 -12 -17 -86
-15 -1078 l3 -1065 177 -3 177 -2 4 637 c3 618 4 640 25 714 97 342 241 479
503 479 61 0 78 3 83 16 12 31 7 329 -6 342 -13 13 -141 14 -223 2z"/>
<path d="M38030 7711 c-248 -37 -533 -234 -691 -481 -108 -167 -150 -294 -175
-523 -15 -138 -15 -157 1 -265 35 -244 123 -437 284 -621 146 -168 334 -278
551 -323 126 -26 356 -21 470 10 154 43 278 114 400 228 190 179 307 418 352
719 19 128 20 151 9 267 -24 244 -75 389 -199 561 -82 114 -190 213 -307 284
-65 38 -184 88 -260 108 -27 8 -65 18 -84 24 -46 14 -281 22 -351 12z m370
-389 c229 -75 389 -266 441 -527 27 -140 12 -385 -33 -525 -63 -196 -160 -300
-363 -392 -46 -21 -63 -23 -240 -22 -182 0 -193 1 -258 27 -84 34 -137 67
-185 117 -38 39 -122 154 -122 168 0 4 -7 20 -15 36 -35 66 -65 178 -80 295
-15 111 -15 133 -1 226 46 311 243 553 498 610 91 21 273 14 358 -13z"/>
<path d="M40300 7710 c-30 -4 -64 -11 -75 -17 -11 -5 -42 -21 -69 -34 -73 -35
-149 -98 -206 -169 l-50 -63 0 121 c0 100 -3 121 -16 126 -9 3 -80 6 -159 6
-108 0 -145 -3 -154 -14 -8 -10 -10 -299 -9 -1077 l3 -1064 170 0 170 0 5 610
c6 661 7 672 66 840 94 263 233 375 465 375 61 0 78 3 83 16 12 31 7 329 -6
342 -13 13 -125 14 -218 2z"/>
<path d="M41325 7710 c-208 -30 -410 -178 -505 -370 -18 -36 -36 -73 -41 -82
-5 -10 -18 -58 -29 -108 -19 -86 -20 -125 -20 -860 l0 -770 178 2 177 3 5 745
5 745 24 70 c46 136 78 183 155 224 90 47 257 54 348 14 85 -38 151 -125 194
-253 17 -51 19 -112 24 -800 l5 -745 182 -3 182 -2 3 752 c3 745 3 754 25 810
47 123 111 200 202 241 38 18 65 22 156 22 100 0 115 -2 167 -28 69 -34 112
-81 151 -167 54 -120 56 -150 57 -922 l0 -708 180 0 181 0 -4 803 c-3 772 -4
805 -24 868 -75 247 -239 416 -488 505 -40 14 -81 18 -200 18 -158 0 -219 -12
-335 -68 -44 -21 -180 -122 -180 -135 0 -3 -18 -25 -39 -49 l-38 -42 -42 50
c-48 57 -159 148 -211 174 -102 51 -162 66 -274 70 -61 3 -138 1 -171 -4z"/>
<path d="M44520 7710 c-76 -8 -213 -41 -247 -59 -10 -5 -44 -21 -75 -36 -208
-93 -404 -327 -486 -580 -51 -156 -57 -200 -57 -425 0 -172 4 -230 18 -290 61
-256 152 -418 331 -587 100 -94 190 -153 300 -197 116 -47 194 -58 351 -53
176 6 228 22 390 120 l120 72 3 223 c2 198 1 222 -13 210 -8 -7 -50 -47 -94
-89 -58 -55 -104 -88 -168 -120 l-88 -44 -150 0 c-160 0 -148 -2 -284 64 -56
27 -202 160 -237 216 -66 106 -100 203 -120 338 -27 186 -3 359 73 517 39 81
59 108 132 180 125 124 229 170 400 178 335 15 573 -130 677 -413 18 -46 19
-100 24 -730 l5 -680 180 0 180 0 0 675 c0 729 0 727 -56 891 -32 96 -75 182
-124 249 -36 49 -139 150 -195 191 -83 60 -221 129 -295 145 -16 3 -50 13 -73
20 -53 17 -313 26 -422 14z"/>
<path d="M50595 7711 c-33 -4 -82 -15 -108 -24 -26 -10 -53 -17 -59 -17 -12 0
-90 -34 -118 -51 -8 -5 -28 -16 -45 -24 -16 -8 -42 -23 -56 -32 -61 -42 -85
-58 -95 -68 -6 -5 -37 -32 -68 -60 -106 -92 -197 -224 -248 -360 -45 -121 -57
-176 -73 -336 -25 -257 4 -460 97 -660 128 -276 369 -488 655 -576 80 -24 103
-27 253 -27 141 0 178 3 253 23 182 47 331 129 465 256 169 159 291 393 324
621 14 97 10 103 -52 104 -19 0 -62 7 -95 14 -101 24 -180 29 -191 14 -13 -18
-30 -72 -44 -140 -6 -32 -16 -60 -21 -63 -5 -4 -9 -14 -9 -23 0 -9 -21 -60
-47 -112 -58 -116 -146 -210 -238 -253 -33 -16 -68 -33 -78 -38 -69 -36 -390
-36 -470 0 -25 12 -49 21 -53 21 -21 0 -121 80 -179 142 -75 83 -155 232 -180
338 -26 105 -31 310 -11 410 52 257 214 459 426 530 89 30 249 38 349 16 95
-20 202 -73 271 -135 52 -46 54 -50 38 -67 -17 -18 -18 -18 -213 -134 -69 -41
-141 -84 -160 -95 -18 -11 -63 -38 -100 -60 -37 -22 -82 -49 -101 -60 -18 -11
-78 -47 -134 -80 -56 -33 -114 -68 -128 -77 -15 -10 -43 -26 -62 -37 -19 -10
-43 -28 -53 -39 -17 -19 -15 -24 55 -163 40 -79 78 -144 83 -143 6 0 306 178
667 395 475 284 657 399 658 412 0 21 -75 154 -139 246 -108 155 -248 273
-412 346 -34 15 -89 32 -179 55 -49 13 -303 20 -375 11z"/>
<path d="M57765 7711 c-33 -4 -82 -15 -108 -24 -26 -10 -52 -17 -57 -17 -12 0
-175 -80 -215 -105 -56 -35 -170 -129 -218 -180 -118 -123 -189 -267 -243
-490 -21 -86 -31 -422 -15 -505 29 -153 42 -196 98 -320 67 -146 228 -339 355
-422 153 -102 310 -156 478 -165 159 -8 310 23 483 100 l67 30 0 198 0 198
-47 -25 c-27 -13 -55 -29 -63 -34 -18 -10 -83 -39 -159 -70 -66 -27 -242 -38
-342 -22 -185 29 -378 192 -468 396 -74 170 -86 409 -30 616 79 291 331 480
641 480 226 0 398 -114 525 -350 18 -33 33 -66 33 -73 0 -6 7 -25 16 -42 8
-16 23 -66 32 -110 14 -68 17 -173 20 -705 4 -684 2 -713 -56 -840 -27 -59
-92 -148 -138 -191 -35 -32 -131 -99 -142 -99 -4 0 -23 -8 -42 -19 -92 -48
-314 -74 -445 -50 -156 28 -205 38 -270 54 -38 9 -79 21 -90 25 -44 19 -65 21
-69 8 -2 -7 -13 -43 -25 -79 -12 -36 -21 -75 -21 -87 0 -12 -9 -49 -21 -82
-11 -34 -18 -68 -15 -76 8 -21 63 -42 211 -79 170 -43 322 -59 493 -52 298 11
485 85 652 256 146 150 230 298 280 497 50 200 51 221 48 934 -3 663 -3 665
-27 755 -51 192 -129 337 -255 471 -128 137 -266 223 -435 270 -95 27 -306 39
-416 25z"/>
<path d="M68625 7711 c-44 -4 -89 -13 -100 -18 -11 -6 -37 -13 -57 -17 -37 -7
-95 -29 -178 -69 -74 -36 -195 -132 -255 -204 -66 -77 -122 -160 -145 -213 -6
-14 -19 -43 -29 -65 -37 -78 -50 -113 -56 -151 -4 -22 -14 -61 -23 -89 -14
-40 -17 -92 -17 -270 0 -197 2 -230 23 -315 13 -52 30 -111 37 -130 29 -79 68
-166 81 -181 8 -8 14 -19 14 -23 0 -8 32 -54 84 -121 97 -123 268 -256 397
-307 95 -38 204 -58 321 -58 193 0 256 19 445 133 l103 61 0 213 c0 117 -3
213 -7 213 -4 0 -37 -29 -73 -64 -58 -57 -160 -136 -175 -136 -4 0 -27 -10
-53 -22 -42 -20 -63 -23 -192 -23 -131 0 -151 2 -205 25 -288 118 -455 386
-455 729 0 248 79 447 233 586 113 103 255 155 418 155 224 0 396 -69 532
-215 39 -42 64 -82 106 -175 l25 -55 6 -690 5 -690 178 -3 177 -2 0 671 c0
635 -1 676 -20 770 -64 313 -238 537 -519 667 -127 59 -235 82 -401 87 -80 2
-181 0 -225 -4z"/>
<path d="M24005 7668 c-3 -7 -4 -492 -3 -1078 l3 -1065 170 0 170 0 3 1064 c1
778 -1 1067 -9 1077 -16 19 -327 20 -334 2z"/>
<path d="M49015 7670 c-72 -8 -180 -36 -215 -54 -14 -8 -39 -17 -57 -20 -17
-4 -37 -14 -44 -22 -6 -8 -16 -14 -22 -14 -17 0 -137 -84 -199 -140 -51 -46
-142 -158 -177 -220 -75 -132 -132 -290 -151 -420 -40 -267 -8 -474 109 -695
155 -296 371 -470 664 -537 79 -18 125 -22 322 -22 l230 -1 3 177 2 178 -22 4
c-13 3 -113 7 -223 10 -178 4 -207 7 -265 28 -129 47 -204 101 -289 208 -121
152 -180 338 -166 529 20 285 136 463 381 585 111 55 172 66 385 66 161 0 188
2 193 16 3 9 6 89 6 179 0 160 0 163 -22 169 -30 8 -366 5 -443 -4z"/>
<path d="M56017 7668 c-16 -12 -17 -78 -15 -1078 l3 -1065 173 -3 172 -2 -2
1077 -3 1078 -155 3 c-114 2 -160 -1 -173 -10z"/>
<path d="M65772 7668 c-15 -15 -16 -1386 -2 -1458 22 -108 41 -179 55 -206 8
-16 15 -35 15 -43 0 -13 19 -48 68 -126 42 -66 176 -190 254 -236 151 -89 307
-125 503 -116 201 8 339 66 484 202 120 114 191 222 240 367 55 162 56 175 56
928 l0 695 -159 3 c-108 2 -163 -1 -172 -9 -12 -10 -14 -118 -14 -649 0 -684
-3 -730 -52 -845 -52 -120 -159 -238 -264 -291 -54 -27 -64 -29 -178 -28 -117
0 -123 1 -191 34 -94 47 -192 141 -239 229 -66 126 -66 121 -66 867 0 507 -3
673 -12 682 -8 8 -59 12 -163 12 -104 0 -155 -4 -163 -12z"/>
<path d="M71322 7672 c-10 -7 -12 -229 -10 -1078 l3 -1069 168 -3 167 -2 -2
1077 -3 1078 -155 2 c-85 2 -161 -1 -168 -5z"/>
<path d="M73665 7658 c-3 -13 -4 -351 -3 -753 3 -682 5 -735 22 -800 83 -305
231 -472 516 -586 47 -19 90 -41 97 -49 9 -11 12 -126 13 -462 l0 -448 175 0
175 0 0 463 0 463 71 23 c250 80 426 253 518 508 56 154 56 158 56 938 l0 720
-164 3 c-112 2 -168 -1 -177 -9 -12 -10 -14 -122 -14 -675 0 -447 -4 -689 -11
-741 -24 -161 -123 -303 -252 -363 -61 -28 -73 -30 -185 -30 -103 0 -129 3
-186 25 -86 32 -131 62 -183 118 -49 53 -75 100 -99 182 -16 54 -19 127 -24
775 l-5 715 -167 3 c-167 2 -168 2 -173 -20z"/>
</g>
</svg>
